<?xml version="1.0" standalone="no"?>
<!DOCTYPE svg PUBLIC "-//W3C//DTD SVG 20010904//EN"
 "http://www.w3.org/TR/2001/REC-SVG-20010904/DTD/svg10.dtd">
<svg version="1.0" xmlns="http://www.w3.org/2000/svg"
 width="64px" height="64px" viewBox="0 0 197.000000 255.000000"
 preserveAspectRatio="xMidYMid meet">

<g transform="translate(0.000000,255.000000) scale(0.100000,-0.100000)"
fill="#000000" stroke="none">
<path d="M466 2434 c-12 -12 -16 -38 -16 -113 0 -82 3 -101 18 -114 17 -15 73
-17 599 -17 549 0 581 -1 596 -18 16 -17 17 -82 17 -736 0 -595 2 -722 14
-744 16 -30 202 -162 229 -162 16 0 17 61 17 948 0 724 -3 951 -12 960 -9 9
-185 12 -729 12 -639 0 -719 -2 -733 -16z"/>
<path d="M46 2014 c-14 -14 -16 -114 -16 -955 0 -889 1 -939 18 -939 9 0 170
92 357 205 235 142 348 205 368 205 21 0 133 -63 369 -206 187 -113 347 -204
356 -202 16 3 17 72 20 938 l2 935 -21 18 c-20 16 -70 17 -729 17 -631 0 -710
-2 -724 -16z m786 -461 c15 -14 18 -32 18 -125 l0 -108 107 0 c127 0 143 -9
143 -77 0 -72 -19 -83 -145 -83 l-105 0 0 -108 c0 -71 -4 -112 -12 -120 -7 -7
-36 -12 -64 -12 -74 0 -84 16 -84 142 l0 98 -102 0 c-125 0 -138 8 -138 85 0
28 5 56 12 63 8 8 49 12 120 12 l108 0 0 105 c0 92 3 108 20 125 25 25 95 27
122 3z"/>
</g>
</svg>
